HIERARCHY
ROOT Root
{
  OFFSET 0.0 0.0 0.0
  CHANNELS 6 Xposition Yposition Zposition Zrotation Yrotation Xrotation
  JOINT Hips
  {
    OFFSET 0.0 100.0 0.0
    CHANNELS 6 Xposition Yposition Zposition Zrotation Yrotation Xrotation
    JOINT Spine1
    {
      OFFSET 5.003913 -0.037094 -0.013727
      CHANNELS 3 Zrotation Yrotation Xrotation
      JOINT Spine2
      {
        OFFSET 7.125363 -1e-06 0.0
        CHANNELS 3 Zrotation Yrotation Xrotation
        JOINT Chest
        {
          OFFSET 7.594027 1e-06 0.0
          CHANNELS 3 Zrotation Yrotation Xrotation
          JOINT Neck1
          {
            OFFSET 26.313086 -0.460272 -0.181672
            CHANNELS 3 Zrotation Yrotation Xrotation
            JOINT Neck2
            {
              OFFSET 8.045911 0.0 0.0
              CHANNELS 3 Zrotation Yrotation Xrotation
              JOINT Head
              {
                OFFSET 6.432774 0.0 0.0
                CHANNELS 3 Zrotation Yrotation Xrotation
                JOINT HeadEnd
                {
                  OFFSET 16.169773 0.06451 0.00362
                  CHANNELS 3 Zrotation Yrotation Xrotation
                }
                JOINT Jaw
                {
                  OFFSET 0.108741 3.12938 0.002639
                  CHANNELS 3 Zrotation Yrotation Xrotation
                }
                JOINT LeftEye
                {
                  OFFSET 4.45173 8.166359 3.206392
                  CHANNELS 3 Zrotation Yrotation Xrotation
                }
                JOINT RightEye
                {
                  OFFSET 4.436895 8.135758 -3.222429
                  CHANNELS 3 Zrotation Yrotation Xrotation
                }
              }
            }
          }
          JOINT LeftShoulder
          {
            OFFSET 23.218927 5.195579 1.621656
            CHANNELS 3 Zrotation Yrotation Xrotation
            JOINT LeftArm
            {
              OFFSET 15.902118 2e-06 -2e-06
              CHANNELS 3 Zrotation Yrotation Xrotation
              JOINT LeftForeArm
              {
                OFFSET 28.739307 0.0 -1e-06
                CHANNELS 3 Zrotation Yrotation Xrotation
                JOINT LeftHand
                {
                  OFFSET 27.093981 -4e-06 0.0
                  CHANNELS 3 Zrotation Yrotation Xrotation
                  JOINT LeftHandThumb1
                  {
                    OFFSET 2.276781 3.380274 0.83384
                    CHANNELS 3 Zrotation Yrotation Xrotation
                    JOINT LeftHandThumb2
                    {
                      OFFSET 4.705309 -1e-06 -1e-06
                      CHANNELS 3 Zrotation Yrotation Xrotation
                      JOINT LeftHandThumb3
                      {
                        OFFSET 2.798515 0.0 3e-06
                        CHANNELS 3 Zrotation Yrotation Xrotation
                        JOINT LeftHandThumbEnd
                        {
                          OFFSET 3.180793 4e-06 -4e-06
                          CHANNELS 3 Zrotation Yrotation Xrotation
                        }
                      }
                    }
                  }
                  JOINT LeftHandIndex1
                  {
                    OFFSET 3.247786 2.352677 0.137192
                    CHANNELS 3 Zrotation Yrotation Xrotation
                    JOINT LeftHandIndex2
                    {
                      OFFSET 6.367095 1e-06 0.0
                      CHANNELS 3 Zrotation Yrotation Xrotation
                      JOINT LeftHandIndex3
                      {
                        OFFSET 3.662364 0.0 0.0
                        CHANNELS 3 Zrotation Yrotation Xrotation
                        JOINT LeftHandIndex4
                        {
                          OFFSET 2.329242 4e-06 -4e-06
                          CHANNELS 3 Zrotation Yrotation Xrotation
                          JOINT LeftHandIndexEnd
                          {
                            OFFSET 2.767823 1e-06 0.0
                            CHANNELS 3 Zrotation Yrotation Xrotation
                          }
                        }
                      }
                    }
                  }
                  JOINT LeftHandMiddle1
                  {
                    OFFSET 3.163612 0.945023 -0.406112
                    CHANNELS 3 Zrotation Yrotation Xrotation
                    JOINT LeftHandMiddle2
                    {
                      OFFSET 6.276789 3e-06 0.0
                      CHANNELS 3 Zrotation Yrotation Xrotation
                      JOINT LeftHandMiddle3
                      {
                        OFFSET 4.35652 -1e-06 4e-06
                        CHANNELS 3 Zrotation Yrotation Xrotation
                        JOINT LeftHandMiddle4
                        {
                          OFFSET 2.996877 0.0 8e-06
                          CHANNELS 3 Zrotation Yrotation Xrotation
                          JOINT LeftHandMiddleEnd
                          {
                            OFFSET 2.323256 3e-06 -4e-06
                            CHANNELS 3 Zrotation Yrotation Xrotation
                          }
                        }
                      }
                    }
                  }
                  JOINT LeftHandRing1
                  {
                    OFFSET 2.882606 -0.309162 0.107445
                    CHANNELS 3 Zrotation Yrotation Xrotation
                    JOINT LeftHandRing2
                    {
                      OFFSET 6.033198 0.0 4e-06
                      CHANNELS 3 Zrotation Yrotation Xrotation
                      JOINT LeftHandRing3
                      {
                        OFFSET 4.350578 3e-06 0.0
                        CHANNELS 3 Zrotation Yrotation Xrotation
                        JOINT LeftHandRing4
                        {
                          OFFSET 2.651321 2e-06 -7e-06
                          CHANNELS 3 Zrotation Yrotation Xrotation
                          JOINT LeftHandRingEnd
                          {
                            OFFSET 1.937663 1e-06 -4e-06
                            CHANNELS 3 Zrotation Yrotation Xrotation
                          }
                        }
                      }
                    }
                  }
                  JOINT LeftHandPinky1
                  {
                    OFFSET 2.865315 -1.525436 0.575687
                    CHANNELS 3 Zrotation Yrotation Xrotation
                    JOINT LeftHandPinky2
                    {
                      OFFSET 5.54936 1e-06 -8e-06
                      CHANNELS 3 Zrotation Yrotation Xrotation
                      JOINT LeftHandPinky3
                      {
                        OFFSET 3.070974 0.0 -4e-06
                        CHANNELS 3 Zrotation Yrotation Xrotation
                        JOINT LeftHandPinky4
                        {
                          OFFSET 1.549672 1e-06 0.0
                          CHANNELS 3 Zrotation Yrotation Xrotation
                          JOINT LeftHandPinkyEnd
                          {
                            OFFSET 1.952123 0.0 0.0
                            CHANNELS 3 Zrotation Yrotation Xrotation
                          }
                        }
                      }
                    }
                  }
                }
              }
            }
          }
          JOINT RightShoulder
          {
            OFFSET 23.161716 5.296122 -1.380114
            CHANNELS 3 Zrotation Yrotation Xrotation
            JOINT RightArm
            {
              OFFSET -16.027195 -2e-06 1.1e-05
              CHANNELS 3 Zrotation Yrotation Xrotation
              JOINT RightForeArm
              {
                OFFSET -28.736639 4e-06 2e-06
                CHANNELS 3 Zrotation Yrotation Xrotation
                JOINT RightHand
                {
                  OFFSET -27.133619 6e-06 0.0
                  CHANNELS 3 Zrotation Yrotation Xrotation
                  JOINT RightHandThumb1
                  {
                    OFFSET -2.274328 -3.351035 -0.83067
                    CHANNELS 3 Zrotation Yrotation Xrotation
                    JOINT RightHandThumb2
                    {
                      OFFSET -4.703594 -3e-06 2e-06
                      CHANNELS 3 Zrotation Yrotation Xrotation
                      JOINT RightHandThumb3
                      {
                        OFFSET -2.794935 -4e-06 -3e-06
                        CHANNELS 3 Zrotation Yrotation Xrotation
                        JOINT RightHandThumbEnd
                        {
                          OFFSET -3.183852 4e-06 1e-06
                          CHANNELS 3 Zrotation Yrotation Xrotation
                        }
                      }
                    }
                  }
                  JOINT RightHandIndex1
                  {
                    OFFSET -3.253496 -2.33755 -0.127667
                    CHANNELS 3 Zrotation Yrotation Xrotation
                    JOINT RightHandIndex2
                    {
                      OFFSET -6.344434 0.0 0.0
                      CHANNELS 3 Zrotation Yrotation Xrotation
                      JOINT RightHandIndex3
                      {
                        OFFSET -3.654871 0.0 -8e-06
                        CHANNELS 3 Zrotation Yrotation Xrotation
                        JOINT RightHandIndex4
                        {
                          OFFSET -2.327586 -1e-06 0.0
                          CHANNELS 3 Zrotation Yrotation Xrotation
                          JOINT RightHandIndexEnd
                          {
                            OFFSET -2.770001 3e-06 8e-06
                            CHANNELS 3 Zrotation Yrotation Xrotation
                          }
                        }
                      }
                    }
                  }
                  JOINT RightHandMiddle1
                  {
                    OFFSET -3.168223 -0.944764 0.411762
                    CHANNELS 3 Zrotation Yrotation Xrotation
                    JOINT RightHandMiddle2
                    {
                      OFFSET -6.266691 -1e-06 -4e-06
                      CHANNELS 3 Zrotation Yrotation Xrotation
                      JOINT RightHandMiddle3
                      {
                        OFFSET -4.348901 0.0 0.0
                        CHANNELS 3 Zrotation Yrotation Xrotation
                        JOINT RightHandMiddle4
                        {
                          OFFSET -3.00024 2e-06 -4e-06
                          CHANNELS 3 Zrotation Yrotation Xrotation
                          JOINT RightHandMiddleEnd
                          {
                            OFFSET -2.321477 -4e-06 -4e-06
                            CHANNELS 3 Zrotation Yrotation Xrotation
                          }
                        }
                      }
                    }
                  }
                  JOINT RightHandRing1
                  {
                    OFFSET -2.885654 0.293261 -0.119232
                    CHANNELS 3 Zrotation Yrotation Xrotation
                    JOINT RightHandRing2
                    {
                      OFFSET -6.032835 -1e-06 -4e-06
                      CHANNELS 3 Zrotation Yrotation Xrotation
                      JOINT RightHandRing3
                      {
                        OFFSET -4.33881 0.0 -4e-06
                        CHANNELS 3 Zrotation Yrotation Xrotation
                        JOINT RightHandRing4
                        {
                          OFFSET -2.654903 -4e-06 -4e-06
                          CHANNELS 3 Zrotation Yrotation Xrotation
                          JOINT RightHandRingEnd
                          {
                            OFFSET -1.935122 0.0 4e-06
                            CHANNELS 3 Zrotation Yrotation Xrotation
                          }
                        }
                      }
                    }
                  }
                  JOINT RightHandPinky1
                  {
                    OFFSET -2.866241 1.503904 -0.60527
                    CHANNELS 3 Zrotation Yrotation Xrotation
                    JOINT RightHandPinky2
                    {
                      OFFSET -5.553177 -2e-06 0.0
                      CHANNELS 3 Zrotation Yrotation Xrotation
                      JOINT RightHandPinky3
                      {
                        OFFSET -3.062664 -1e-06 -4e-06
                        CHANNELS 3 Zrotation Yrotation Xrotation
                        JOINT RightHandPinky4
                        {
                          OFFSET -1.546529 2e-06 4e-06
                          CHANNELS 3 Zrotation Yrotation Xrotation
                          JOINT RightHandPinkyEnd
                          {
                            OFFSET -1.952341 0.0 -4e-06
                            CHANNELS 3 Zrotation Yrotation Xrotation
                          }
                        }
                      }
                    }
                  }
                }
              }
            }
          }
        }
      }
    }
    JOINT LeftLeg
    {
      OFFSET -8.443107 2.567604 10.043214
      CHANNELS 3 Zrotation Yrotation Xrotation
      JOINT LeftShin
      {
        OFFSET 43.229198 1e-06 -1e-06
        CHANNELS 3 Zrotation Yrotation Xrotation
        JOINT LeftFoot
        {
          OFFSET 42.298611 1e-06 1e-06
          CHANNELS 3 Zrotation Yrotation Xrotation
          JOINT LeftToeBase
          {
            OFFSET 14.165858 1e-06 0.0
            CHANNELS 3 Zrotation Yrotation Xrotation
            JOINT LeftToeEnd
            {
              OFFSET 6.7141 -0.234461 0.0
              CHANNELS 3 Zrotation Yrotation Xrotation
            }
          }
        }
      }
    }
    JOINT RightLeg
    {
      OFFSET -8.303923 2.592729 -10.047278
      CHANNELS 3 Zrotation Yrotation Xrotation
      JOINT RightShin
      {
        OFFSET -43.369682 0.0 1e-06
        CHANNELS 3 Zrotation Yrotation Xrotation
        JOINT RightFoot
        {
          OFFSET -42.260784 4e-06 2e-06
          CHANNELS 3 Zrotation Yrotation Xrotation
          JOINT RightToeBase
          {
            OFFSET -14.222245 -2e-06 -1e-06
            CHANNELS 3 Zrotation Yrotation Xrotation
            JOINT RightToeEnd
            {
              OFFSET -6.660062 0.232574 -2e-06
              CHANNELS 3 Zrotation Yrotation Xrotation
            }
          }
        }
      }
    }
  }
}
MOTION
Frames: 4
Frame Time: 0.03333333333333333
0.0 0.0 0.0 0.0 -0.0 0.0 -0.107202 46.963165 -30.797205 86.432396 -20.424095 87.659843 30.441006 -1.050943 -0.346976 -2.213722 -0.796601 -0.020317 25.222559 -1.304319 -1.119558 50.890362 -4.289854 2.826672 -3.048554 -1.464766 1.413731 -34.555164 0.503363 0.803131 6e-06 0.0 -0.0 -0.201899 -0.130366 -0.019327 -0.117541 -0.319716 0.085016 -0.203628 0.063127 -0.116152 17.39517 -76.843178 -9.971802 79.318878 -24.512573 -53.379749 22.611744 0.236123 0.222019 18.794075 44.364033 22.838839 17.636621 -26.322741 52.411213 -19.466656 -14.3956 29.410395 1e-06 -8.774822 -2e-06 15.673677 -18.633587 6.573273 -0.609778 -1.795655 -3.889326 -4.80709 -11.04681 -2.93785 2e-06 -20.976013 -1e-06 -5.019974 -25.033556 -4.031882 6e-06 -0.0 1e-06 -10.634533 -5.686972 -3.565585 10.573271 -17.922947 -3.113903 0.0 -13.821205 -0.0 -0.501779 -31.181501 -4.027018 -12.823856 -60.514622 9.035489 -13.982716 -7.150201 -2.875041 13.772729 -8.401487 -3.218242 0.347727 -34.211544 0.771657 -0.963031 -17.733368 2.621022 -2e-06 0.0 1e-06 -17.346422 -20.095219 -4.201778 21.757561 -1.638372 3.866426 -0.0 -6.338824 1e-06 -1.697591 -22.591743 -6.194005 -1e-06 -4e-06 -0.0 -128.561356 -76.407677 -44.429367 83.4272 -18.994659 -56.54475 9.694413 -0.377882 -0.029239 21.700113 36.80278 17.57077 22.182106 -20.375887 49.933319 -16.701815 -16.743528 28.476532 -2e-06 -12.6906 -2e-06 16.287067 -17.790474 2.675067 -0.10592 -1.513854 -4.275882 -5.039042 -5.612873 -2.953555 2e-06 -11.02052 -3e-06 -6.111297 -15.89533 -3.840472 -0.0 -0.0 1e-06 -10.283371 -5.68029 -4.341837 11.028294 -11.302404 -2.372635 -1.384268 -14.23858 -6.320123 -0.625437 -26.924187 -3.827604 -4.550876 -50.190159 -3.377374 -13.708524 -7.363479 -3.720943 18.14115 -14.052736 -3.242678 5e-06 -18.787266 1e-06 -0.429711 -8.456041 2.555504 -0.0 -0.0 -0.0 -15.923534 -20.094486 -5.473587 30.41921 -7.190824 1.735926 2e-06 -8.162926 -2e-06 -1.8619 -22.861467 -6.167945 -0.0 -3e-06 -1e-06 138.210892 -10.276107 -0.093991 143.530975 0.774841 0.594848 -120.146103 4.07131 -0.353564 -37.024864 2.117731 2.010241 -0.999999 0.0 0.0 -46.129745 -6.43634 13.747937 140.853699 -0.372781 -0.179478 -115.218956 15.395426 0.162792 -25.392799 0.979503 1.717302 -1.000003 0.0 0.0 
0.0 0.0 0.0 0.0 -0.0 0.0 -0.403302 46.858967 -30.917517 86.631805 -20.206327 87.694046 30.461582 -1.095432 -0.335402 -2.214592 -0.834169 0.005146 25.248907 -1.38144 -1.092633 50.690834 -4.275043 2.818694 -3.049881 -1.468244 1.347535 -34.504135 0.516574 0.798616 6e-06 0.0 -0.0 -0.204466 -0.13505 -0.017764 -0.122201 -0.328394 0.09057 -0.204508 0.061988 -0.117479 17.416555 -76.969307 -9.984488 79.37616 -24.296083 -52.852325 22.28301 0.222912 0.208432 18.658234 44.404842 23.049921 17.636633 -26.322741 52.411201 -19.466667 -14.395606 29.410395 -0.0 -8.774824 -3e-06 15.683059 -18.634892 6.570797 -0.609774 -1.795654 -3.889325 -4.807088 -11.046813 -2.93785 4e-06 -20.976021 -1e-06 -5.019973 -25.033566 -4.031878 6e-06 0.0 -2e-06 -10.634536 -5.686968 -3.565587 10.573276 -17.922956 -3.113899 1e-06 -13.821214 2e-06 -0.50178 -31.181522 -4.027016 -12.845041 -60.551991 9.057099 -13.982718 -7.150198 -2.875042 13.772733 -8.401497 -3.218241 0.347729 -34.211563 0.771655 -0.96303 -17.733376 2.62102 -1e-06 -1e-06 1e-06 -17.346422 -20.095222 -4.20178 21.757561 -1.638374 3.866429 0.0 -6.338827 1e-06 -1.69759 -22.591751 -6.19401 -1e-06 -4e-06 -2e-06 -128.781235 -76.216652 -44.107182 83.36998 -18.833948 -56.440926 9.497675 -0.399763 -0.030787 21.35178 37.072937 17.225857 22.182121 -20.3759 49.933331 -16.701818 -16.74353 28.476542 -3e-06 -12.690605 -3e-06 16.334044 -17.802519 2.635358 -0.10592 -1.513857 -4.27588 -5.039041 -5.612873 -2.953557 3e-06 -11.020524 -3e-06 -6.1113 -15.895334 -3.840473 -0.0 0.0 -1e-06 -10.283371 -5.680291 -4.341837 11.028296 -11.302405 -2.372637 -1.384269 -14.238583 -6.320123 -0.62544 -26.924194 -3.8276 -4.569696 -50.207783 -3.369035 -13.708528 -7.363478 -3.720939 18.141155 -14.052742 -3.242676 6e-06 -18.78727 -2e-06 -0.429711 -8.456045 2.555503 -0.0 1e-06 -0.0 -15.923539 -20.09449 -5.473584 30.419222 -7.190827 1.735926 2e-06 -8.162927 -4e-06 -1.861901 -22.861469 -6.167945 1e-06 -4e-06 -0.0 138.286316 -10.332501 0.38975 143.680313 0.780615 0.601951 -120.14814 4.508097 -0.660131 -37.037952 2.111622 2.014247 -1.000001 -0.0 -0.0 -45.906326 -6.392616 13.428815 141.158569 -0.390437 -0.184217 -115.345314 15.029806 0.350593 -25.389637 0.980003 1.704113 -1.000001 0.0 -0.0 
0.0 0.0 0.0 0.0 -0.0 0.0 -0.68716 46.737747 -31.012997 86.855141 -20.000246 87.684181 30.461639 -1.139231 -0.316975 -2.216323 -0.872068 0.040397 25.27998 -1.471854 -1.058437 50.488827 -4.238993 2.828459 -3.051662 -1.478837 1.287162 -34.372795 0.494225 0.764519 6e-06 -0.0 -0.0 -0.206058 -0.140311 -0.016853 -0.124815 -0.332967 0.094978 -0.204756 0.056255 -0.119355 17.487553 -77.07093 -10.082024 79.42617 -24.148659 -52.291725 22.014011 0.240662 0.199126 18.414509 44.350967 23.146441 17.636629 -26.322731 52.41119 -19.466665 -14.395598 29.410389 -2e-06 -8.774822 -1e-06 15.667741 -18.651915 6.576571 -0.609775 -1.795653 -3.889329 -4.807088 -11.046811 -2.937848 7e-06 -20.976015 -0.0 -5.019969 -25.033558 -4.031878 5e-06 -0.0 0.0 -10.634533 -5.686971 -3.56559 10.573275 -17.922951 -3.113902 3e-06 -13.821209 0.0 -0.501774 -31.181505 -4.027014 -12.884116 -60.55566 9.064113 -13.982714 -7.150198 -2.875043 13.772731 -8.401494 -3.218242 0.347735 -34.211555 0.771657 -0.963028 -17.733372 2.621022 -0.0 -1e-06 1e-06 -17.346418 -20.095219 -4.201784 21.757559 -1.638377 3.866428 2e-06 -6.338825 1e-06 -1.697586 -22.591742 -6.194006 0.0 -5e-06 -2e-06 -128.960205 -76.058167 -43.835125 83.312065 -18.707874 -56.41729 9.311928 -0.399125 -0.031598 21.042402 37.253815 16.896717 22.182121 -20.375898 49.933331 -16.701818 -16.743534 28.476542 -5e-06 -12.690603 -0.0 16.371342 -17.80752 2.59885 -0.105919 -1.513856 -4.275882 -5.039042 -5.612873 -2.953558 4e-06 -11.020526 -2e-06 -6.111297 -15.895336 -3.840472 -0.0 -0.0 1e-06 -10.283373 -5.680288 -4.341838 11.028296 -11.302409 -2.372636 -1.384267 -14.238585 -6.320124 -0.625437 -26.924194 -3.827602 -4.571566 -50.196945 -3.40716 -13.708528 -7.363476 -3.720939 18.141153 -14.052742 -3.242677 7e-06 -18.787271 -0.0 -0.429711 -8.456045 2.555506 -0.0 0.0 -0.0 -15.923539 -20.094492 -5.473588 30.419222 -7.190828 1.735928 2e-06 -8.162927 -2e-06 -1.8619 -22.861471 -6.167944 -1e-06 -2e-06 -0.0 138.424072 -10.390224 0.805988 143.801315 0.791385 0.605525 -120.181198 4.937057 -1.004292 -36.934772 2.100628 2.019964 -0.999998 -0.0 0.0 -45.67625 -6.380692 13.174788 141.442047 -0.394576 -0.184873 -115.468376 14.701406 0.542171 -25.311646 0.976926 1.696713 -1.000003 0.0 1e-06 
0.0 0.0 0.0 0.0 -0.0 0.0 -0.944658 46.599735 -31.09631 87.097504 -19.795557 87.636879 30.451344 -1.186488 -0.295961 -2.209312 -0.900543 0.08025 25.321177 -1.571989 -1.020946 50.276012 -4.190763 2.845342 -3.050459 -1.470142 1.260373 -34.152515 0.398035 0.719065 6e-06 -0.0 -0.0 -0.206119 -0.140502 -0.016689 -0.123948 -0.326567 0.096116 -0.203913 0.050175 -0.120224 17.654322 -77.165436 -10.298007 79.444138 -24.044575 -51.715855 21.787508 0.266454 0.198775 18.041798 44.207073 23.044544 17.636635 -26.322737 52.411205 -19.466665 -14.395597 29.410395 -2e-06 -8.774822 -2e-06 15.637433 -18.654436 6.578854 -0.609776 -1.795654 -3.889327 -4.807088 -11.046813 -2.937849 5e-06 -20.976023 -3e-06 -5.019969 -25.033564 -4.03188 6e-06 1e-06 0.0 -10.634537 -5.686974 -3.565589 10.573275 -17.922955 -3.113901 2e-06 -13.821214 2e-06 -0.501777 -31.181519 -4.02702 -12.885165 -60.533276 9.028273 -13.982716 -7.150201 -2.875043 13.772731 -8.401493 -3.218242 0.347733 -34.211559 0.771654 -0.963027 -17.733374 2.621018 -1e-06 -0.0 1e-06 -17.346424 -20.095224 -4.201784 21.757561 -1.638376 3.86643 1e-06 -6.338827 0.0 -1.697589 -22.591755 -6.194009 -0.0 -4e-06 -3e-06 -129.088943 -75.921936 -43.620941 83.257706 -18.622486 -56.41394 9.151294 -0.364087 -0.029923 20.745811 37.369907 16.50379 22.182119 -20.375896 49.933327 -16.701817 -16.743528 28.476538 -3e-06 -12.690601 -4e-06 16.377991 -17.808075 2.579599 -0.105919 -1.513855 -4.275878 -5.039042 -5.612874 -2.953557 2e-06 -11.020525 -2e-06 -6.111299 -15.895334 -3.840469 -0.0 -0.0 1e-06 -10.283372 -5.680289 -4.341839 11.028296 -11.302407 -2.372634 -1.384269 -14.238584 -6.320124 -0.625439 -26.924198 -3.827603 -4.569712 -50.166237 -3.44917 -13.708526 -7.36348 -3.72094 18.141153 -14.05274 -3.242677 5e-06 -18.787271 -1e-06 -0.429711 -8.456045 2.555506 -0.0 0.0 2e-06 -15.923539 -20.094486 -5.473584 30.419218 -7.190826 1.735928 2e-06 -8.162927 -2e-06 -1.861902 -22.861471 -6.167945 2e-06 -3e-06 -3e-06 138.616501 -10.435408 1.126808 143.910599 0.801002 0.604503 -120.244141 5.326959 -1.366873 -36.707607 2.084961 2.021843 -1.000001 0.0 0.0 -45.447205 -6.403428 13.017632 141.709732 -0.382147 -0.178269 -115.57769 14.430367 0.699718 -25.151281 0.971688 1.692446 -1.000002 0.0 0.0 
